<svg width="247" height="227" viewBox="0 0 247 227" fill="none" xmlns="http://www.w3.org/2000/svg">
<path d="M241.859 216.423H236.711V170.11C236.711 167.261 234.411 164.954 231.563 164.954H164.672V108.357C164.672 105.515 162.365 103.208 159.523 103.208H154.375V87.7706C154.375 84.9286 152.076 82.6265 149.234 82.6265H128.648V71.9643C139.149 70.4568 148.194 64.4115 153.726 55.8821C174.855 46.5993 179.838 17.8201 180.041 16.5686C180.29 15.076 179.868 13.5535 178.888 12.4C177.908 11.2504 176.476 10.5832 174.96 10.5832H159.523V5.43855C159.523 2.59657 157.224 0.293945 154.374 0.293945H92.6251C89.7908 0.293945 87.4844 2.59657 87.4844 5.43855V10.5832H72.0467C70.5391 10.5832 69.1 11.2504 68.1274 12.4C67.1476 13.5535 66.7255 15.076 66.9667 16.5686C67.178 17.8201 72.1523 46.5993 93.2735 55.8821C98.8214 64.4115 107.867 70.4568 118.359 71.9643V82.627H97.7736C94.9316 82.627 92.6251 84.9291 92.6251 87.7711V103.209H87.4844C84.6424 103.209 82.3359 105.515 82.3359 108.357V144.377H15.4377C12.6034 144.377 10.2969 146.684 10.2969 149.518V216.424H5.14847C2.30649 216.424 0 218.723 0 221.565C0 224.406 2.30649 226.705 5.14847 226.705H15.4377H87.4844H159.523H231.563H241.859C244.701 226.705 247 224.406 247 221.565C247 218.723 244.701 216.423 241.859 216.423ZM159.523 36.3139V20.8762H168.411C166.918 25.825 164.152 32.9408 159.44 38.699C159.501 37.9079 159.523 37.1162 159.523 36.3139ZM78.6197 20.8762H87.4844V36.3139C87.4844 37.1012 87.5143 37.8852 87.5596 38.6614C82.8859 32.9142 80.1119 25.8134 78.6197 20.8762ZM82.3359 216.423H20.5861V154.673H82.3359V216.423ZM97.7736 36.3139V10.5832H149.234V36.3139C149.234 50.4997 137.686 62.0442 123.5 62.0442C109.314 62.0442 97.7736 50.5002 97.7736 36.3139ZM102.922 92.9191H144.086V103.208H102.922V92.9191ZM154.375 170.11V216.423H92.6251V149.517V113.501H97.7736H149.234H154.375V170.11ZM226.422 216.423H164.672V175.251H226.422V216.423Z" fill="#E3E3E3"/>
<path d="M128.648 41.4585V26.0215C128.648 23.1796 126.349 20.877 123.5 20.877C120.666 20.877 118.359 23.1796 118.359 26.0215V41.4585C118.359 44.3005 120.666 46.6069 123.5 46.6069C126.349 46.6069 128.648 44.3005 128.648 41.4585Z" fill="#E3E3E3"/>
</svg>
